<svg width="1500" height="700" viewBox="0 0 1500 700" fill="none" xmlns="http://www.w3.org/2000/svg">
<path d="M490.5 206C516.275 239.529 530.725 236.735 556.5 206M732 480C756.104 498.034 768.435 498.597 788 480" stroke="black"/>
<path d="M594 254.5C362.5 237.5 295 657.5 606.5 676H629.5C873 639 865.5 283.5 615.5 254.5M594 254.5C594 254.5 365.5 225.5 615.5 254.5M594 254.5H615.5" stroke="black"/>
<path d="M425.605 573.697C426.663 568.054 428.82 556.883 435.814 556.683C442.094 556.504 449.331 555.787 455.38 557.628C456.951 558.106 465.804 562.372 466.345 558.857C467.574 550.87 464.868 542.883 464.738 534.943C464.689 531.953 463.42 524.944 465.494 522.276C470.974 515.231 481.047 516.213 488.842 515.754C508.646 514.589 525.565 512.726 529.393 489.76C533.23 466.735 539.66 444.706 540.925 421.514C541.577 409.543 528.652 407.49 519.184 403.554C507.311 398.618 494.658 393.054 483.643 386.445C461.921 373.412 476.648 348.248 476.648 328.313C476.648 322.643 461.63 316.781 456.231 316.781" stroke="black" stroke-width="3" stroke-linecap="round"/>
<path d="M485.155 294.663C500.244 296.171 497.239 322.408 509.165 323.492C517.279 324.23 525.205 322.468 533.174 322.642C542.058 322.835 550.981 329.721 560.113 331.243C572.55 333.316 572.677 326.894 571.739 315.174C570.674 301.853 552.897 302.809 555.292 289.936C557.87 276.08 548.108 269.282 548.108 257.231" stroke="black" stroke-width="3" stroke-linecap="round"/>
<path d="M692.73 291.26C680.828 296.898 663.401 300.058 653.597 309.03C647.673 314.452 650.512 321.595 650.1 328.597C649.383 340.789 636.583 345.31 636.583 357.805C636.583 361.798 635.164 368.485 637.717 371.983C641.316 376.915 647.631 379.822 650.856 384.838C659.524 398.322 650.469 417.584 642.821 428.509C638.135 435.203 634.588 437.39 641.309 443.727C648.468 450.477 654.64 452.896 664.184 452.896C682.933 452.896 683.466 461.276 693.486 474.636C699.539 482.707 706.514 474.845 713.903 473.313C714.388 473.212 729.327 470.792 728.838 469.815C727.884 467.906 723.356 466.507 723.356 466.507" stroke="black" stroke-width="3" stroke-linecap="round"/>
<path d="M726.759 628.143C713.988 612.534 701.998 601.301 684.223 592.035C678.864 589.242 666.509 583.548 667.492 575.682C667.804 573.19 674.284 568.367 675.621 565.19C678.596 558.125 679.119 552.359 679.119 544.773C679.119 540.428 677.882 537.41 681.954 535.51C690.888 531.341 697.554 523.648 706.436 519.441C712.468 516.583 719.424 516.323 724.963 512.446C728.966 509.644 731.89 505.613 735.266 502.237" stroke="black" stroke-width="3" stroke-linecap="round"/>
<path d="M781.205 512.446C782.693 519.703 778.519 549.385 786.309 553.28" stroke="black" stroke-width="3" stroke-linecap="round"/>
<path d="M789.712 449.493C794.017 449.493 796.174 448.338 799.92 446.09" stroke="black" stroke-width="3" stroke-linecap="round"/>
<path d="M524.5 272.5C479.423 205.478 470.822 178.523 510.5 165.5C577.52 156.774 565.732 192.391 524.5 272.5Z" stroke="black"/>
<path d="M761 536.5C707.577 457.762 713.723 440.661 752.5 431C809.068 435.049 803.86 463.08 761 536.5Z" stroke="black"/>
<path d="M522.587 282.753C521.985 289.368 519.184 294.636 519.184 301.468" stroke="#FF0101" stroke-width="10" stroke-linecap="round"/>
<path d="M515.781 321.885C515.781 328.245 514.08 334.379 514.08 340.601" stroke="#FF0101" stroke-width="10" stroke-linecap="round"/>
<path d="M508.975 357.616C508.975 361.751 506.694 379.444 510.677 381.436" stroke="#FF0101" stroke-width="10" stroke-linecap="round"/>
<path d="M508.975 398.45C508.975 401.872 507.266 410.163 509.921 412.818C512.258 415.155 512.378 415.241 512.378 418.867" stroke="#FF0101" stroke-width="10" stroke-linecap="round"/>
<path d="M519.184 437.583C521.313 448.227 526.912 457.682 532.795 466.507" stroke="#FF0101" stroke-width="10" stroke-linecap="round"/>
<path d="M544.706 483.521C550.407 485.076 555.158 492.273 559.168 496.282C563.368 500.482 568.7 504.2 571.928 509.043" stroke="#FF0101" stroke-width="10" stroke-linecap="round"/>
<path d="M592.346 514.147C604.178 516.235 616.084 520.912 626.374 526.057" stroke="#FF0101" stroke-width="10" stroke-linecap="round"/>
<path d="M651.896 531.162C657.648 531.162 674.759 528.504 679.119 532.863" stroke="#FF0101" stroke-width="10" stroke-linecap="round"/>
<path d="M699.536 534.564C712.269 535.118 724.108 537.967 736.967 537.967" stroke="#FF0101" stroke-width="10" stroke-linecap="round"/>
<path d="M520.885 190.875H525.99" stroke="#FF0101" stroke-width="50" stroke-linecap="round"/>
<path d="M753.982 458C756.886 458.242 759.652 459.071 762.489 459.701" stroke="#FF0101" stroke-width="50" stroke-linecap="round"/>
<path d="M551.511 182.368C551.511 185.929 551.511 189.489 551.511 193.049C551.511 196.486 553.154 185.526 551.133 182.746C547.934 178.348 543.773 173.861 537.9 173.861" stroke="#FF0101" stroke-width="10" stroke-linecap="round"/>
<path d="M551.511 178.965C549.322 171.667 535.7 168.757 529.393 168.757" stroke="#FF0101" stroke-width="10" stroke-linecap="round"/>
<path d="M548.108 194.278C548.108 205.728 546.854 209.442 536.198 212.994" stroke="#FF0101" stroke-width="10" stroke-linecap="round"/>
<path d="M551.511 195.98C551.511 203.373 549.955 207.817 543.004 211.292" stroke="#FF0101" stroke-width="10" stroke-linecap="round"/>
<path d="M512.378 172.16C505.641 172.833 499.232 180.614 495.364 185.771" stroke="#FF0101" stroke-width="10" stroke-linecap="round"/>
<path d="M536.198 212.994C532.316 213.964 532.134 222.317 526.746 223.297C518.436 224.808 518.706 223.422 511.433 219.421C504.925 215.842 493.663 207.139 493.663 199.382" stroke="#FF0101" stroke-width="10" stroke-linecap="round"/>
<path d="M519.184 218.098H532.795" stroke="#FF0101" stroke-width="10" stroke-linecap="round"/>
<path d="M520.885 219.8C526.126 219.8 531.414 220.602 536.198 218.476C539.055 217.206 541.692 214.695 544.706 214.695" stroke="#FF0101" stroke-width="10" stroke-linecap="round"/>
<path d="M493.663 206.188C489.21 195.612 488.233 183.726 500.468 180.667" stroke="#FF0101" stroke-width="10" stroke-linecap="round"/>
<path d="M496.627 191.63C496.737 193.987 499 198.349 495.556 195.683C488.848 190.489 499.191 198.711 500.68 199.966C506.723 205.058 514.925 209.784 519.341 216.408" stroke="#FF0101" stroke-width="10" stroke-linecap="round"/>
<path d="M487.679 186.812C490.244 180.217 493.971 178.015 498.692 174.04C500.46 172.551 504.578 174.043 506.263 172.357" stroke="#FF0101" stroke-width="5" stroke-linecap="round"/>
<path d="M499.38 172.357C504.83 171.579 510.115 169.185 515.593 168.189C519.588 167.463 523.521 167.539 527.6 167.539" stroke="#FF0101" stroke-width="5" stroke-linecap="round"/>
<path d="M520.717 168.228C514.187 168.228 509.36 168.343 503.51 170.292" stroke="#FF0101" stroke-width="5" stroke-linecap="round"/>
<path d="M506.263 217.785C506.75 217.889 514.918 222.637 512.764 223.253C510.428 223.92 509.899 222.012 508.328 221.226" stroke="#FF0101" stroke-width="5" stroke-linecap="round"/>
<path d="M512.458 225.356C514.9 225.578 516.857 226.733 519.341 226.733C521.291 226.733 523.241 226.733 525.191 226.733C528.317 226.733 534.811 223.532 537.237 221.915" stroke="#FF0101" stroke-width="5" stroke-linecap="round"/>
<path d="M749.295 485.052C747.703 483.991 745.479 484.916 744.079 483.77C742.763 482.693 741.763 481.261 740.366 480.278C738.436 478.92 734.922 477.84 733.382 476.3C730.676 473.594 729.472 469.247 728.652 465.559C727.599 460.822 726.961 454.617 727.856 449.69C728.336 447.054 733.624 445.247 735.371 443.634C737.96 441.244 741.695 438.905 745.316 438.905" stroke="#FF0101" stroke-width="10" stroke-linecap="round"/>
<path d="M742.134 479.482C745.54 480.164 748.606 482.665 752.079 482.665C754.892 482.665 754.864 482.994 754.864 485.848" stroke="#FF0101" stroke-width="10" stroke-linecap="round"/>
<path d="M744.521 481.869C755.071 483.276 764.029 490.017 774.755 484.654C780.323 481.87 781.264 477.538 785.452 473.117C788.912 469.465 788.281 459.7 788.281 454.817" stroke="#FF0101" stroke-width="10" stroke-linecap="round"/>
<path d="M788.281 452.43C786.225 445.749 775.653 439.668 769.362 437.49C762.715 435.189 753.849 436.518 746.908 436.518" stroke="#FF0101" stroke-width="10" stroke-linecap="round"/>
<path d="M750.886 486.643C754.112 486.936 753.737 490.129 755.306 490.577C756.786 491 758.893 490.621 760.434 490.621C762.821 490.621 769.981 491.273 769.981 488.234" stroke="#FF0101" stroke-width="5" stroke-linecap="round"/>
<path d="M751.681 489.03C750.568 488.929 749.568 488.54 748.499 488.234" stroke="#FF0101" stroke-width="5" stroke-linecap="round"/>
<path d="M799.42 446.861C800.458 446.861 803.117 447.445 803.354 446.021C803.583 444.647 803.525 444.474 804.99 444.474" stroke="black" stroke-width="3" stroke-linecap="round"/>
<path d="M692.804 290.915C697.342 290.502 701.216 286.425 705.534 285.346" stroke="black" stroke-width="3" stroke-linecap="round"/>
<path d="M485.937 297.28C482.147 297.28 477.541 296.309 474.002 294.893" stroke="black" stroke-width="3" stroke-linecap="round"/>
<path d="M456.498 316.376C454.972 316.376 453.932 316.051 452.52 315.58" stroke="black" stroke-width="3" stroke-linecap="round"/>
<path d="M779.529 506.534V516.082" stroke="black" stroke-width="3" stroke-linecap="round"/>
<path d="M785.098 553.477C786.887 553.875 786.177 556.005 787.485 556.66" stroke="black" stroke-width="3" stroke-linecap="round"/>
<path d="M724.63 627.472C724.904 630.769 727.645 631.744 728.608 634.633" stroke="black" stroke-width="3" stroke-linecap="round"/>
<path d="M735.769 503.352C736.191 501.942 737.271 501.76 738.156 501.76" stroke="black" stroke-width="3" stroke-linecap="round"/>
<path d="M426.5 352.5H471M414 377.5H471" stroke="black"/>
<path d="M408 403H503" stroke="black"/>
<path d="M399.5 433L536.5 424.5" stroke="black"/>
<path d="M396 456.5L533.5 448" stroke="black"/>
<path d="M398 481.5L526.5 473" stroke="black"/>
<path d="M399.5 503H523.5" stroke="black"/>
<path d="M404.5 530H463" stroke="black"/>
<path d="M490 296L550 264" stroke="black"/>
<path d="M500 311L553.5 287.5" stroke="black"/>
<path d="M566.5 306L531.5 322.5" stroke="black"/>
<path d="M653.5 321L720.5 296" stroke="black"/>
<path d="M638.5 349.5L739 311" stroke="black"/>
<path d="M757.5 327.5L640.5 372.5" stroke="black"/>
<path d="M653.5 391L769 347.5" stroke="black"/>
<path d="M784 366L648.5 419.5" stroke="black"/>
<path d="M645.5 444.5L790.5 391" stroke="black"/>
<path d="M801 413L682 454.5" stroke="black"/>
<path d="M715.5 608.5H759" stroke="black"/>
<path d="M687 586.5H772.5" stroke="black"/>
<path d="M787.5 560H678.5" stroke="black"/>
<path d="M689 531.5H777.5" stroke="black"/>
</svg>
